<?xml version="1.0"?><svg id="Layer_1" style="enable-background:new 0 0 200 200;" version="1.1" viewBox="0 0 200 200" xml:space="preserve" xmlns="http://www.w3.org/2000/svg" xmlns:xlink="http://www.w3.org/1999/xlink"><style type="text/css">
	.st0{fill:#64786F;}
	.st1{opacity:0.3;}
	.st2{fill:#E1FFF1;}
</style><rect class="st0" height="180" width="180" x="10" y="10"/><path class="st1" d="M190,107.06V190H95.63c-0.16-0.15-42.31-42.3-42.47-42.47c-4.92-4.78-7.98-11.47-7.98-18.86  c0-10.39,6.12-19.83,15.6-24.06c1.51-0.68,8.68-2.27,10.69-2.27h6.96l45.6,46V146h4.58l-56.5-56.49v-9h12.53  c0.7-4.11,2.35-7.96,4.86-11.3l-8.99-8.99l6.36-6.36l9.18,9.17c3.34-2.22,7.13-3.63,11.13-4.13V45h9l14.5,14.59l5.93-5.92  L190,107.06z"/><g><path class="st2" d="M130.506,102.421v-0.082h-1.975h-4.5h-13.498c-4.616,0-8.956-1.802-12.22-5.073   c-3.268-3.274-5.066-7.627-5.066-12.258s1.799-8.984,5.066-12.258c3.264-3.271,7.604-5.073,12.22-5.073   c4.615,0,8.955,1.802,12.22,5.073c3.267,3.273,5.066,7.626,5.066,12.257v4.5h4.5h4.5h13.659v-9h-14.047   c-0.612-3.58-1.948-6.971-3.945-9.992l10.49-10.485l-6.363-6.365L126.32,63.955c-3.019-2.282-6.465-3.861-10.138-4.663V45h-9   v13.896c-4.003,0.507-7.796,1.915-11.136,4.134l-9.177-9.173l-6.363,6.365l8.994,8.99c-2.508,3.336-4.164,7.191-4.866,11.296   H72.113v9h12.522c0.91,5.319,3.421,10.22,7.307,14.115c4.965,4.975,11.567,7.715,18.591,7.715h13.498h4.5   c9.531,0,17.286,7.774,17.286,17.331S138.063,146,128.531,146h-4.5v9h4.5c14.494,0,26.286-11.812,26.286-26.331   C154.817,114.817,144.08,103.437,130.506,102.421z"/><path class="st2" d="M54.183,128.669c0-6.841,4.029-13.059,10.267-15.843c0.993-0.443,2.036-0.794,3.099-1.041   c1.275-0.296,2.596-0.447,3.922-0.447h6.96v-9h-6.96c-2.011,0-4.016,0.229-5.96,0.681c-1.623,0.377-3.215,0.912-4.73,1.589   c-9.475,4.229-15.597,13.673-15.597,24.061C45.183,143.188,56.975,155,71.47,155h40.536v-9H71.47   C61.938,146,54.183,138.226,54.183,128.669z"/></g></svg>